#	                Vertices: 8
#	                  Points: 0
#	                   Lines: 0
#	                   Faces: 6
#	               Materials: 1

o 1

# Vertex list

v -0.5 -0.5 0.5
v -0.5 -0.5 -0.5
v -0.5 0.5 -0.5
v -0.5 0.5 0.5
v 0.5 -0.5 0.5
v 0.5 -0.5 -0.5
v 0.5 0.5 -0.5
v 0.5 0.5 0.5

vt -0.5 -0.5
vt -0.5 -0.5
vt -0.5 0.5
vt -0.5 0.5
vt 0.5 -0.5
vt 0.5 -0.5
vt 0.5 0.5
vt 0.5 0.5

vn -0.5 -0.5 0.5
vn -0.5 -0.5 -0.5
vn -0.5 0.5 -0.5
vn -0.5 0.5 0.5
vn 0.5 -0.5 0.5
vn 0.5 -0.5 -0.5
vn 0.5 0.5 -0.5
vn 0.5 0.5 0.5

# Point/Line/Face list

usemtl Default
f 4/4/4 3/3/3 2/2/2 1/1/1
f 2/2/2 6/6/6 5/5/5 1/1/1
f 3/3/3 7/7/7 6/6/6 2/2/2
f 8/8/8 7/7/7 3/3/3 4/4/4
f 5/5/5 8/8/8 4/4/4 1/1/1
f 6/6/6 7/7/7 8/8/8 5/5/5

# End of file
